<svg width="142" height="106" viewBox="0 0 142 106" fill="none" xmlns="http://www.w3.org/2000/svg">
<g id="1st">
<g id="ST">
<path id="Vector" d="M116.781 9.81019H102.221V1.2002H141.841V9.81019H127.141V53.0002H116.781V9.81019Z" fill="white"/>
<path id="Vector_2" d="M82.0199 53.9802C78.5199 53.9802 75.1132 53.3269 71.7999 52.0202C68.5332 50.7136 65.6399 48.8469 63.1199 46.4202L69.0699 39.2802C70.9365 41.0069 73.0132 42.4069 75.2999 43.4802C77.6332 44.5069 79.9432 45.0202 82.2299 45.0202C84.9365 45.0202 86.9899 44.4836 88.3899 43.4102C89.7899 42.3369 90.4899 40.8902 90.4899 39.0702C90.4899 38.0902 90.3032 37.2735 89.9299 36.6202C89.5565 35.9669 89.0199 35.3835 88.3199 34.8702C87.6665 34.3569 86.8499 33.8902 85.8699 33.4702C84.9365 33.0502 83.8865 32.5835 82.7199 32.0702L75.7899 29.1302C74.4832 28.5702 73.1999 27.8935 71.9399 27.1002C70.6799 26.3069 69.5599 25.3502 68.5799 24.2302C67.5999 23.0635 66.8065 21.7569 66.1999 20.3102C65.5932 18.8169 65.2899 17.1135 65.2899 15.2002C65.2899 13.1002 65.7332 11.1402 66.6199 9.32022C67.5065 7.45355 68.7432 5.86688 70.3299 4.56021C71.9165 3.20688 73.8065 2.15688 75.9999 1.41021C78.1932 0.616881 80.5965 0.220215 83.2099 0.220215C86.2432 0.220215 89.1832 0.803547 92.0299 1.97021C94.8765 3.09021 97.3499 4.72355 99.4499 6.87021L94.1999 13.3802C92.5665 12.0269 90.8632 10.9769 89.0899 10.2302C87.3165 9.48355 85.3565 9.11021 83.2099 9.11021C80.9232 9.11021 79.1032 9.60021 77.7499 10.5802C76.3965 11.5135 75.7199 12.8435 75.7199 14.5702C75.7199 15.5035 75.9299 16.2969 76.3499 16.9502C76.8165 17.6035 77.3999 18.1869 78.0999 18.7002C78.8465 19.2135 79.7099 19.6802 80.6899 20.1002C81.6699 20.5202 82.7199 20.9402 83.8399 21.3602L90.6299 24.2302C92.2165 24.8835 93.6399 25.6302 94.8999 26.4702C96.2065 27.3102 97.3032 28.2902 98.1899 29.4102C99.1232 30.5302 99.8232 31.8369 100.29 33.3302C100.803 34.7769 101.06 36.4336 101.06 38.3002C101.06 40.4002 100.617 42.4069 99.7299 44.3202C98.8899 46.2335 97.6532 47.9135 96.0199 49.3602C94.3865 50.7602 92.3799 51.8802 89.9999 52.7202C87.6665 53.5602 85.0065 53.9802 82.0199 53.9802Z" fill="white"/>
</g>
<g id="Group">
<path id="Vector_3" d="M26.8517 59.913V43.1489L31.8278 39.2603V0H24.6986L0 20.1918L2.48802 24.5509C7.64592 24.0036 17.1675 21.5937 20.0862 20.5087V93.1725L2.48802 98.1364V106H31.8278V63.8016L26.8613 59.9226L26.8517 59.913Z" fill="white"/>
<path id="Vector_4" d="M63.1197 98.1268L45.6747 93.2205V0H34.4785V40.2877L29.5024 44.1667V58.8857L34.4785 62.7647V105.99H63.1197V98.1268Z" fill="white"/>
</g>
</g>
</svg>
