<svg width="300" height="30" viewBox="0 0 300 30" fill="none" xmlns="http://www.w3.org/2000/svg">
<path d="M29.3252 11.7705H24.9902V26.6341H29.3252V11.7705Z" fill="white"/>
<path d="M29.3252 6.15039H24.9902V9.65278H29.3252V6.15039Z" fill="white"/>
<path d="M17.3684 6.15039H15.9402L10.8445 20.2891L5.78469 6.15039H4.33493H0V26.6336H4.33493V13.2844L9.50239 26.6336H12.2584L17.3684 13.2987V26.6336H21.6962V6.15039H17.3684Z" fill="white"/>
<path d="M36.5166 14.3469V11.7991H32.1816V26.6627H36.5166V18.0575C36.5166 18.0575 36.6529 14.7991 41.4974 15.1292V11.7704C41.4974 11.7704 37.7223 11.6484 36.5166 14.3469Z" fill="white"/>
<path d="M50.1749 11.7988C43.8447 11.7988 43.6151 15.4089 43.6151 16.7223H47.1749C47.1749 16.7223 47.1246 14.3251 50.0529 14.3251C52.9811 14.3251 52.9022 16.0405 52.9022 16.2414C52.9022 16.4424 52.8519 17.7845 48.9691 18.172C45.0864 18.5596 42.9404 19.672 42.9404 22.6218C42.9404 25.5716 45.2371 26.6338 48.2155 26.6338C51.194 26.6338 52.9093 24.818 52.9093 24.818V26.6338H56.5409V15.4304C56.5409 15.4304 56.5122 11.7988 50.1821 11.7988H50.1749ZM52.7155 20.6409C52.7155 21.3945 52.5361 22.1553 52.1414 22.794C51.6892 23.5261 50.9141 24.3515 49.5289 24.5739C48.395 24.7534 47.749 24.3586 47.383 23.8706C46.773 23.0596 46.8806 21.8969 47.584 21.1792C48.2945 20.4543 49.7514 19.6936 52.7227 19.629V20.6338L52.7155 20.6409Z" fill="white"/>
<path d="M66.6888 23.9208C64.2773 23.9208 62.8993 22.5428 62.8993 20.3036H73.7007C73.7007 20.3036 73.5715 11.7988 66.3873 11.7988C59.2031 11.7988 59.2031 19.0117 59.2031 20.1314C59.2031 21.251 60.1936 27.1003 66.4519 27.1003C72.7103 27.1003 73.7007 21.8539 73.7007 21.8539H69.5668C69.5668 21.8539 69.0931 23.9208 66.6816 23.9208H66.6888ZM66.2582 14.6266C69.6601 14.6266 69.6601 18.172 69.6601 18.172H62.8634C62.8634 18.172 62.8634 14.6266 66.2653 14.6266H66.2582Z" fill="white"/>
<path d="M140.332 23.9208C137.921 23.9208 136.543 22.5428 136.543 20.3036H147.344C147.344 20.3036 147.215 11.7988 140.031 11.7988C132.847 11.7988 132.847 19.0117 132.847 20.1314C132.847 21.251 133.837 27.1003 140.095 27.1003C146.354 27.1003 147.344 21.8539 147.344 21.8539H143.21C143.21 21.8539 142.737 23.9208 140.325 23.9208H140.332ZM139.902 14.6266C143.304 14.6266 143.304 18.172 143.304 18.172H136.507C136.507 18.172 136.507 14.6266 139.909 14.6266H139.902Z" fill="white"/>
<path d="M93.8394 6.19385H90.093L82.1768 26.6412H86.3107L88.0763 21.6891H95.5189L97.1983 26.6412H101.849L93.8466 6.19385H93.8394ZM89.0954 18.8326L91.8155 11.268L94.4997 18.8254L89.0954 18.8398V18.8326Z" fill="white"/>
<path d="M102.474 21.6746H106.263C106.263 21.6746 106.263 24.5741 109.392 24.5741C112.521 24.5741 112.163 22.6005 112.163 22.2344C112.163 21.8684 111.108 20.9139 109.098 20.5191C107.088 20.1244 102.84 19.134 102.84 16.0694C102.84 13.0048 105.28 11.7847 109.069 11.7847C112.859 11.7847 115.694 14.1603 115.694 15.9043H111.474C111.474 15.9043 111.208 14.1603 109.084 14.1603C106.959 14.1603 106.895 15.3804 106.895 15.8756C106.895 16.3708 107.225 17.5263 112.299 18.1794C117.373 18.8325 117.208 26.634 109.923 26.634C102.639 26.634 102.474 21.6746 102.474 21.6746Z" fill="white"/>
<path d="M117.61 21.6746H121.4C121.4 21.6746 121.4 24.5741 124.529 24.5741C127.658 24.5741 127.299 22.6005 127.299 22.2344C127.299 21.8684 126.244 20.9139 124.235 20.5191C122.225 20.1244 117.976 19.134 117.976 16.0694C117.976 13.0048 120.417 11.7847 124.206 11.7847C127.996 11.7847 130.83 14.1603 130.83 15.9043H126.61C126.61 15.9043 126.345 14.1603 124.22 14.1603C122.096 14.1603 122.031 15.3804 122.031 15.8756C122.031 16.3708 122.362 17.5263 127.436 18.1794C132.51 18.8325 132.345 26.634 125.06 26.634C117.775 26.634 117.61 21.6746 117.61 21.6746Z" fill="white"/>
<path d="M157.816 14.9281V12.0788H155.017V7.49268H150.682V12.0716H148.256V14.9209H150.682V22.3563C150.682 22.3563 150.179 26.6338 153.452 26.6338H157.816V23.5979C157.816 23.5979 155.017 24.1936 155.017 22.3635V14.9281H157.816Z" fill="white"/>
<path d="M167.742 16.8089C167.742 21.9476 171.56 27.1007 178.084 27.1007C184.608 27.1007 184.335 25.1342 184.335 25.1342L183.158 22.3567C183.158 22.3567 171.84 26.1103 171.84 17.0816C171.84 8.0529 178.852 8.82085 182.046 9.51702L183.431 6.81128C183.431 6.81128 168.502 2.08879 167.742 16.8089Z" fill="white"/>
<path d="M206.412 6.09326V26.6339H210.581V10.2201L218.749 26.6339H224.541V6.09326H220.608V22.4569L211.995 6.09326H206.412Z" fill="white"/>
<path d="M244.636 6.09326H228.811V9.63154H234.158V26.6339H238.5V9.63154H242.806L244.636 6.09326Z" fill="white"/>
<path d="M252.287 17.878H259.594V14.189H253.507L252.287 15.6674V9.5813H259.192L260.663 6.1435H252.287V6.09326H248.082V6.1435V9.5813V23.1961V24.5239V26.6339H259.192L260.663 23.1961H252.287V17.878Z" fill="white"/>
<path d="M193.012 17.878H200.318V14.189H194.232L193.012 15.6674V9.5813H199.916L201.387 6.1435H193.012V6.09326H188.806V6.1435V9.5813V23.1961V24.5239V26.6339H199.916L201.387 23.1961H193.012V17.878Z" fill="white"/>
<path d="M278.045 23.1963L274.651 17.7776C276.71 17.1891 279.143 15.7178 279.143 12.0863C279.143 5.77765 273.079 6.09344 273.079 6.09344H265.615V26.6341H269.82V18.1724H270.631L275.842 26.6341H279.588L281.34 23.1963H278.038H278.045ZM269.82 15.3087V9.58147H272.67C272.67 9.58147 275.684 9.49535 275.684 12.1293C275.684 14.7633 273.323 15.3016 272.756 15.3016H269.828L269.82 15.3087Z" fill="white"/>
<path d="M286.65 5.55742L291.732 1H293.447V9.10287C293.447 9.10287 292.048 9.26077 292.048 11.6579C292.048 14.055 293.447 14.1483 293.447 14.1483V22.61H287.024V21.5766L291.057 19.8684V4.94737L289.672 5.55742H286.65Z" fill="white"/>
<path d="M294.208 1H296.289V19.8684L299.871 21.5766V22.61H294.208V13.7249C294.208 13.7249 292.794 13.4091 292.794 11.6005C292.794 9.79187 293.454 9.64115 294.208 9.30383V1Z" fill="white"/>
</svg>
